<?xml version="1.0" standalone="no"?>
<!DOCTYPE svg PUBLIC "-//W3C//DTD SVG 1.1//EN" "http://www.w3.org/Graphics/SVG/1.1/DTD/svg11.dtd">
<svg version="1.1" xmlns="http://www.w3.org/2000/svg" viewBox="0 0 1230 520" width="1230" height="520"><!-- svg-source:excalidraw --><metadata></metadata><defs><style class="style-fonts">

</style></defs><g stroke-linecap="round" transform="translate(50 50) rotate(0 70 30)"><path d="M0 0 L140 0 L140 60 L0 60" stroke="none" stroke-width="0" fill="#111827"></path><path d="M0 0 C40.67 0, 81.35 0, 140 0 M0 0 C34.15 0, 68.29 0, 140 0 M140 0 C140 21.92, 140 43.84, 140 60 M140 0 C140 16.9, 140 33.79, 140 60 M140 60 C95.71 60, 51.41 60, 0 60 M140 60 C106.41 60, 72.82 60, 0 60 M0 60 C0 36.21, 0 12.42, 0 0 M0 60 C0 47.35, 0 34.69, 0 0" stroke="#2dd4bf" stroke-width="2" fill="none"></path></g><g transform="translate(48 70) rotate(0 72 10)"><text x="72" y="14.3203125" font-family="Helvetica, sans-serif, Segoe UI Emoji" font-size="16px" fill="#2dd4bf" text-anchor="middle" style="white-space: pre;" direction="ltr" dominant-baseline="alphabetic">Iniciar Aplicación</text></g><g stroke-linecap="round" transform="translate(220 30) rotate(0 90 50)"><path d="M91 0 L180 51 L91 100 L0 51" stroke="none" stroke-width="0" fill="#111827" fill-rule="evenodd"></path><path d="M91 0 C125.87 19.98, 160.73 39.96, 180 51 M91 0 C119.37 16.26, 147.75 32.52, 180 51 M180 51 C158.92 62.6, 137.85 74.21, 91 100 M180 51 C156.94 63.69, 133.88 76.39, 91 100 M91 100 C57.68 82.06, 24.36 64.11, 0 51 M91 100 C69.35 88.34, 47.69 76.68, 0 51 M0 51 C27.53 35.57, 55.06 20.14, 91 0 M0 51 C20.97 39.25, 41.94 27.49, 91 0" stroke="#2dd4bf" stroke-width="2" fill="none"></path></g><g transform="translate(230 60) rotate(0 80 20)"><text x="80" y="14.3203125" font-family="Helvetica, sans-serif, Segoe UI Emoji" font-size="16px" fill="#2dd4bf" text-anchor="middle" style="white-space: pre;" direction="ltr" dominant-baseline="alphabetic">Cargar Configuración</text><text x="80" y="34.3203125" font-family="Helvetica, sans-serif, Segoe UI Emoji" font-size="16px" fill="#2dd4bf" text-anchor="middle" style="white-space: pre;" direction="ltr" dominant-baseline="alphabetic">y Prompts</text></g><g stroke-linecap="round" transform="translate(440 25) rotate(0 110 55)"><path d="M111 0 L220 56 L111 110 L0 56" stroke="none" stroke-width="0" fill="#111827" fill-rule="evenodd"></path><path d="M111 0 C135.94 12.81, 160.89 25.63, 220 56 M111 0 C153.32 21.74, 195.65 43.49, 220 56 M220 56 C183.94 73.86, 147.88 91.73, 111 110 M220 56 C178.94 76.34, 137.88 96.68, 111 110 M111 110 C68.7 89.42, 26.4 68.85, 0 56 M111 110 C70.61 90.35, 30.22 70.7, 0 56 M0 56 C37.18 37.24, 74.35 18.49, 111 0 M0 56 C41.44 35.09, 82.88 14.19, 111 0" stroke="#2dd4bf" stroke-width="2" fill="none"></path></g><g transform="translate(482 60) rotate(0 68 20)"><text x="68" y="14.3203125" font-family="Helvetica, sans-serif, Segoe UI Emoji" font-size="16px" fill="#2dd4bf" text-anchor="middle" style="white-space: pre;" direction="ltr" dominant-baseline="alphabetic">¿Existen Archivos</text><text x="68" y="34.3203125" font-family="Helvetica, sans-serif, Segoe UI Emoji" font-size="16px" fill="#2dd4bf" text-anchor="middle" style="white-space: pre;" direction="ltr" dominant-baseline="alphabetic">de Salida?</text></g><g stroke-linecap="round" transform="translate(720 10) rotate(0 120 30)"><path d="M0 0 L240 0 L240 60 L0 60" stroke="none" stroke-width="0" fill="#111827"></path><path d="M0 0 C60 0, 119.99 0, 240 0 M0 0 C68.29 0, 136.57 0, 240 0 M240 0 C240 20.01, 240 40.02, 240 60 M240 0 C240 14.41, 240 28.81, 240 60 M240 60 C188.05 60, 136.1 60, 0 60 M240 60 C176.98 60, 113.96 60, 0 60 M0 60 C0 38.83, 0 17.67, 0 0 M0 60 C0 36.57, 0 13.13, 0 0" stroke="#2dd4bf" stroke-width="2" fill="none"></path></g><g transform="translate(740 20) rotate(0 100 20)"><text x="100" y="14.3203125" font-family="Helvetica, sans-serif, Segoe UI Emoji" font-size="16px" fill="#2dd4bf" text-anchor="middle" style="white-space: pre;" direction="ltr" dominant-baseline="alphabetic">Analizar Páginas Markdown</text><text x="100" y="34.3203125" font-family="Helvetica, sans-serif, Segoe UI Emoji" font-size="16px" fill="#2dd4bf" text-anchor="middle" style="white-space: pre;" direction="ltr" dominant-baseline="alphabetic">a Caché en RAM</text></g><g stroke-linecap="round" transform="translate(720 90) rotate(0 120 30)"><path d="M0 0 L240 0 L240 60 L0 60" stroke="none" stroke-width="0" fill="#111827"></path><path d="M0 0 C83.94 0, 167.87 0, 240 0 M0 0 C84.1 0, 168.21 0, 240 0 M240 0 C240 13.36, 240 26.71, 240 60 M240 0 C240 17.13, 240 34.25, 240 60 M240 60 C163.89 60, 87.78 60, 0 60 M240 60 C157.03 60, 74.06 60, 0 60 M0 60 C0 43.4, 0 26.8, 0 0 M0 60 C0 41.31, 0 22.63, 0 0" stroke="#2dd4bf" stroke-width="2" fill="none"></path></g><g transform="translate(772 100) rotate(0 68 20)"><text x="68" y="14.3203125" font-family="Helvetica, sans-serif, Segoe UI Emoji" font-size="16px" fill="#2dd4bf" text-anchor="middle" style="white-space: pre;" direction="ltr" dominant-baseline="alphabetic">Inicializar Caché</text><text x="68" y="34.3203125" font-family="Helvetica, sans-serif, Segoe UI Emoji" font-size="16px" fill="#2dd4bf" text-anchor="middle" style="white-space: pre;" direction="ltr" dominant-baseline="alphabetic">en RAM Vacía</text></g><g stroke-linecap="round" transform="translate(1000 50) rotate(0 110 30)"><path d="M0 0 L220 0 L220 60 L0 60" stroke="none" stroke-width="0" fill="#111827"></path><path d="M0 0 C66.04 0, 132.07 0, 220 0 M0 0 C60.12 0, 120.23 0, 220 0 M220 0 C220 21.69, 220 43.37, 220 60 M220 0 C220 21.78, 220 43.56, 220 60 M220 60 C141.37 60, 62.73 60, 0 60 M220 60 C160.02 60, 100.03 60, 0 60 M0 60 C0 43.39, 0 26.78, 0 0 M0 60 C0 36.37, 0 12.75, 0 0" stroke="#2dd4bf" stroke-width="2" fill="none"></path></g><g transform="translate(1038 60) rotate(0 72 20)"><text x="72" y="14.3203125" font-family="Helvetica, sans-serif, Segoe UI Emoji" font-size="16px" fill="#2dd4bf" text-anchor="middle" style="white-space: pre;" direction="ltr" dominant-baseline="alphabetic">Fase 1: Extracción</text><text x="72" y="34.3203125" font-family="Helvetica, sans-serif, Segoe UI Emoji" font-size="16px" fill="#2dd4bf" text-anchor="middle" style="white-space: pre;" direction="ltr" dominant-baseline="alphabetic">de Texto y OCR</text></g><g stroke-linecap="round"><g transform="translate(190 80) rotate(0 15 0)"><path d="M0 0 C8.69 0, 17.37 0, 30 0 M0 0 C11.39 0, 22.77 0, 30 0" stroke="#06b6d4" stroke-width="2" fill="none"></path></g><g transform="translate(190 80) rotate(0 15 0)"><path d="M15.9 5.13 C19.99 3.65, 24.07 2.16, 30 0 M15.9 5.13 C21.25 3.18, 26.6 1.24, 30 0" stroke="#06b6d4" stroke-width="2" fill="none"></path></g><g transform="translate(190 80) rotate(0 15 0)"><path d="M15.9 -5.13 C19.99 -3.65, 24.07 -2.16, 30 0 M15.9 -5.13 C21.25 -3.18, 26.6 -1.24, 30 0" stroke="#06b6d4" stroke-width="2" fill="none"></path></g></g><mask></mask><g stroke-linecap="round"><g transform="translate(400 80) rotate(0 20 0)"><path d="M0 0 C10.7 0, 21.39 0, 40 0 M0 0 C14.03 0, 28.06 0, 40 0" stroke="#06b6d4" stroke-width="2" fill="none"></path></g><g transform="translate(400 80) rotate(0 20 0)"><path d="M21.21 6.84 C26.23 5.01, 31.26 3.18, 40 0 M21.21 6.84 C27.8 4.44, 34.39 2.04, 40 0" stroke="#06b6d4" stroke-width="2" fill="none"></path></g><g transform="translate(400 80) rotate(0 20 0)"><path d="M21.21 -6.84 C26.23 -5.01, 31.26 -3.18, 40 0 M21.21 -6.84 C27.8 -4.44, 34.39 -2.04, 40 0" stroke="#06b6d4" stroke-width="2" fill="none"></path></g></g><mask></mask><g stroke-linecap="round"><g transform="translate(660 80) rotate(0 30 -20)"><path d="M0 0 C21.07 -14.05, 42.15 -28.1, 60 -40 M0 0 C13.28 -8.85, 26.56 -17.7, 60 -40" stroke="#06b6d4" stroke-width="2" fill="none"></path></g><g transform="translate(660 80) rotate(0 30 -20)"><path d="M45.2 -19.85 C50.4 -26.93, 55.59 -34.01, 60 -40 M45.2 -19.85 C48.47 -24.31, 51.75 -28.77, 60 -40" stroke="#06b6d4" stroke-width="2" fill="none"></path></g><g transform="translate(660 80) rotate(0 30 -20)"><path d="M35.71 -34.08 C44.24 -36.16, 52.77 -38.24, 60 -40 M35.71 -34.08 C41.09 -35.39, 46.46 -36.7, 60 -40" stroke="#06b6d4" stroke-width="2" fill="none"></path></g></g><mask></mask><g transform="translate(682 25) rotate(0 8 10)"><text x="8" y="14.3203125" font-family="Helvetica, sans-serif, Segoe UI Emoji" font-size="16px" fill="#2dd4bf" text-anchor="middle" style="white-space: pre;" direction="ltr" dominant-baseline="alphabetic">Sí</text></g><g stroke-linecap="round"><g transform="translate(660 80) rotate(0 30 20)"><path d="M0 0 C17.11 11.41, 34.23 22.82, 60 40 M0 0 C20.53 13.69, 41.07 27.38, 60 40" stroke="#06b6d4" stroke-width="2" fill="none"></path></g><g transform="translate(660 80) rotate(0 30 20)"><path d="M35.71 34.08 C42.64 35.77, 49.57 37.46, 60 40 M35.71 34.08 C44.02 36.11, 52.34 38.13, 60 40" stroke="#06b6d4" stroke-width="2" fill="none"></path></g><g transform="translate(660 80) rotate(0 30 20)"><path d="M45.2 19.85 C49.42 25.6, 53.64 31.35, 60 40 M45.2 19.85 C50.26 26.75, 55.33 33.64, 60 40" stroke="#06b6d4" stroke-width="2" fill="none"></path></g></g><mask></mask><g transform="translate(682 65) rotate(0 8 10)"><text x="8" y="14.3203125" font-family="Helvetica, sans-serif, Segoe UI Emoji" font-size="16px" fill="#2dd4bf" text-anchor="middle" style="white-space: pre;" direction="ltr" dominant-baseline="alphabetic">No</text></g><g stroke-linecap="round"><g transform="translate(960 40) rotate(0 20 20)"><path d="M0 0 C14.81 14.81, 29.63 29.63, 40 40 M0 0 C11.18 11.18, 22.36 22.36, 40 40" stroke="#06b6d4" stroke-width="2" fill="none"></path></g><g transform="translate(960 40) rotate(0 20 20)"><path d="M17.34 29.43 C25.73 33.35, 34.12 37.26, 40 40 M17.34 29.43 C23.67 32.39, 30.01 35.34, 40 40" stroke="#06b6d4" stroke-width="2" fill="none"></path></g><g transform="translate(960 40) rotate(0 20 20)"><path d="M29.43 17.34 C33.35 25.73, 37.26 34.12, 40 40 M29.43 17.34 C32.39 23.67, 35.34 30.01, 40 40" stroke="#06b6d4" stroke-width="2" fill="none"></path></g></g><mask></mask><g stroke-linecap="round"><g transform="translate(960 120) rotate(0 20 -20)"><path d="M0 0 C15.77 -15.77, 31.53 -31.53, 40 -40 M0 0 C15.68 -15.68, 31.36 -31.36, 40 -40" stroke="#06b6d4" stroke-width="2" fill="none"></path></g><g transform="translate(960 120) rotate(0 20 -20)"><path d="M29.43 -17.34 C33.6 -26.27, 37.76 -35.2, 40 -40 M29.43 -17.34 C33.58 -26.22, 37.72 -35.1, 40 -40" stroke="#06b6d4" stroke-width="2" fill="none"></path></g><g transform="translate(960 120) rotate(0 20 -20)"><path d="M17.34 -29.43 C26.27 -33.6, 35.2 -37.76, 40 -40 M17.34 -29.43 C26.22 -33.58, 35.1 -37.72, 40 -40" stroke="#06b6d4" stroke-width="2" fill="none"></path></g></g><mask></mask><g stroke-linecap="round" transform="translate(1020 205) rotate(0 90 55)"><path d="M91 0 L180 56 L91 110 L0 56" stroke="none" stroke-width="0" fill="#111827" fill-rule="evenodd"></path><path d="M91 0 C124.06 20.8, 157.12 41.61, 180 56 M91 0 C122.34 19.72, 153.67 39.43, 180 56 M180 56 C151.97 73.01, 123.93 90.02, 91 110 M180 56 C156.73 70.12, 133.46 84.24, 91 110 M91 110 C55.91 89.18, 20.82 68.36, 0 56 M91 110 C71.53 98.45, 52.06 86.89, 0 56 M0 56 C32.32 36.11, 64.64 16.22, 91 0 M0 56 C31.66 36.52, 63.32 17.03, 91 0" stroke="#2dd4bf" stroke-width="2" fill="none"></path></g><g transform="translate(1046 240) rotate(0 64 20)"><text x="64" y="14.3203125" font-family="Helvetica, sans-serif, Segoe UI Emoji" font-size="16px" fill="#2dd4bf" text-anchor="middle" style="white-space: pre;" direction="ltr" dominant-baseline="alphabetic">¿Página en Caché</text><text x="64" y="34.3203125" font-family="Helvetica, sans-serif, Segoe UI Emoji" font-size="16px" fill="#2dd4bf" text-anchor="middle" style="white-space: pre;" direction="ltr" dominant-baseline="alphabetic">de Disco?</text></g><g stroke-linecap="round"><g transform="translate(1110 110) rotate(0 0 47.5)"><path d="M0 0 C0 23.98, 0 47.96, 0 95 M0 0 C0 37.86, 0 75.71, 0 95" stroke="#06b6d4" stroke-width="2" fill="none"></path></g><g transform="translate(1110 110) rotate(0 0 47.5)"><path d="M-8.55 71.51 C-6.39 77.44, -4.23 83.37, 0 95 M-8.55 71.51 C-5.14 80.87, -1.74 90.23, 0 95" stroke="#06b6d4" stroke-width="2" fill="none"></path></g><g transform="translate(1110 110) rotate(0 0 47.5)"><path d="M8.55 71.51 C6.39 77.44, 4.23 83.37, 0 95 M8.55 71.51 C5.14 80.87, 1.74 90.23, 0 95" stroke="#06b6d4" stroke-width="2" fill="none"></path></g></g><mask></mask><g stroke-linecap="round" transform="translate(730 190) rotate(0 110 30)"><path d="M0 0 L220 0 L220 60 L0 60" stroke="none" stroke-width="0" fill="#111827"></path><path d="M0 0 C79.21 0, 158.42 0, 220 0 M0 0 C56.28 0, 112.56 0, 220 0 M220 0 C220 15.91, 220 31.83, 220 60 M220 0 C220 23.67, 220 47.35, 220 60 M220 60 C137.78 60, 55.56 60, 0 60 M220 60 C163.01 60, 106.02 60, 0 60 M0 60 C0 38.14, 0 16.28, 0 0 M0 60 C0 37.54, 0 15.07, 0 0" stroke="#2dd4bf" stroke-width="2" fill="none"></path></g><g transform="translate(740 210) rotate(0 100 10)"><text x="100" y="14.3203125" font-family="Helvetica, sans-serif, Segoe UI Emoji" font-size="16px" fill="#2dd4bf" text-anchor="middle" style="white-space: pre;" direction="ltr" dominant-baseline="alphabetic">Ejecutar Extracción / OCR</text></g><g stroke-linecap="round" transform="translate(730 270) rotate(0 110 30)"><path d="M0 0 L220 0 L220 60 L0 60" stroke="none" stroke-width="0" fill="#111827"></path><path d="M0 0 C84.96 0, 169.91 0, 220 0 M0 0 C75.85 0, 151.7 0, 220 0 M220 0 C220 16.65, 220 33.3, 220 60 M220 0 C220 15.5, 220 31.01, 220 60 M220 60 C159.95 60, 99.91 60, 0 60 M220 60 C133.4 60, 46.79 60, 0 60 M0 60 C0 38.71, 0 17.42, 0 0 M0 60 C0 41.9, 0 23.8, 0 0" stroke="#2dd4bf" stroke-width="2" fill="none"></path></g><g transform="translate(740 280) rotate(0 100 20)"><text x="100" y="14.3203125" font-family="Helvetica, sans-serif, Segoe UI Emoji" font-size="16px" fill="#2dd4bf" text-anchor="middle" style="white-space: pre;" direction="ltr" dominant-baseline="alphabetic">Omitir Extracción, Cargar</text><text x="100" y="34.3203125" font-family="Helvetica, sans-serif, Segoe UI Emoji" font-size="16px" fill="#2dd4bf" text-anchor="middle" style="white-space: pre;" direction="ltr" dominant-baseline="alphabetic">Texto OCR desde Caché</text></g><g stroke-linecap="round" transform="translate(430 190) rotate(0 120 30)"><path d="M0 0 L240 0 L240 60 L0 60" stroke="none" stroke-width="0" fill="#111827"></path><path d="M0 0 C50.78 0, 101.57 0, 240 0 M0 0 C77.54 0, 155.08 0, 240 0 M240 0 C240 23.85, 240 47.7, 240 60 M240 0 C240 20.43, 240 40.85, 240 60 M240 60 C146 60, 52.01 60, 0 60 M240 60 C163.25 60, 86.51 60, 0 60 M0 60 C0 36.68, 0 13.35, 0 0 M0 60 C0 43.78, 0 27.56, 0 0" stroke="#2dd4bf" stroke-width="2" fill="none"></path></g><g transform="translate(446 200) rotate(0 104 20)"><text x="104" y="14.3203125" font-family="Helvetica, sans-serif, Segoe UI Emoji" font-size="16px" fill="#2dd4bf" text-anchor="middle" style="white-space: pre;" direction="ltr" dominant-baseline="alphabetic">Guardar Texto OCR Extraído</text><text x="104" y="34.3203125" font-family="Helvetica, sans-serif, Segoe UI Emoji" font-size="16px" fill="#2dd4bf" text-anchor="middle" style="white-space: pre;" direction="ltr" dominant-baseline="alphabetic">en Disco de Inmediato</text></g><g stroke-linecap="round" transform="translate(200 230) rotate(0 100 30)"><path d="M0 0 L200 0 L200 60 L0 60" stroke="none" stroke-width="0" fill="#111827"></path><path d="M0 0 C63.23 0, 126.45 0, 200 0 M0 0 C79.78 0, 159.56 0, 200 0 M200 0 C200 15.13, 200 30.26, 200 60 M200 0 C200 13.86, 200 27.72, 200 60 M200 60 C135.7 60, 71.4 60, 0 60 M200 60 C136.26 60, 72.52 60, 0 60 M0 60 C0 40.43, 0 20.87, 0 0 M0 60 C0 41.56, 0 23.13, 0 0" stroke="#2dd4bf" stroke-width="2" fill="none"></path></g><g transform="translate(188 250) rotate(0 112 10)"><text x="112" y="14.3203125" font-family="Helvetica, sans-serif, Segoe UI Emoji" font-size="16px" fill="#2dd4bf" text-anchor="middle" style="white-space: pre;" direction="ltr" dominant-baseline="alphabetic">Fase 2: Transición de Modelo</text></g><g stroke-linecap="round" transform="translate(20 230) rotate(0 80 30)"><path d="M0 0 L160 0 L160 60 L0 60" stroke="none" stroke-width="0" fill="#111827"></path><path d="M0 0 C35 0, 69.99 0, 160 0 M0 0 C38.32 0, 76.65 0, 160 0 M160 0 C160 12.93, 160 25.87, 160 60 M160 0 C160 19.92, 160 39.83, 160 60 M160 60 C119.09 60, 78.17 60, 0 60 M160 60 C99.24 60, 38.48 60, 0 60 M0 60 C0 47.36, 0 34.73, 0 0 M0 60 C0 41.36, 0 22.73, 0 0" stroke="#2dd4bf" stroke-width="2" fill="none"></path></g><g transform="translate(28 240) rotate(0 72 20)"><text x="72" y="14.3203125" font-family="Helvetica, sans-serif, Segoe UI Emoji" font-size="16px" fill="#2dd4bf" text-anchor="middle" style="white-space: pre;" direction="ltr" dominant-baseline="alphabetic">Fase 3: Traducción</text><text x="72" y="34.3203125" font-family="Helvetica, sans-serif, Segoe UI Emoji" font-size="16px" fill="#2dd4bf" text-anchor="middle" style="white-space: pre;" direction="ltr" dominant-baseline="alphabetic">y Revisión</text></g><g stroke-linecap="round"><g transform="translate(1020 260) rotate(0 -35 -20)"><path d="M0 0 C-19.1 -10.92, -38.21 -21.83, -70 -40 M0 0 C-15 -8.57, -30 -17.15, -70 -40" stroke="#06b6d4" stroke-width="2" fill="none"></path></g><g transform="translate(1020 260) rotate(0 -35 -20)"><path d="M-45.36 -35.77 C-52.09 -36.92, -58.81 -38.08, -70 -40 M-45.36 -35.77 C-50.64 -36.68, -55.92 -37.58, -70 -40" stroke="#06b6d4" stroke-width="2" fill="none"></path></g><g transform="translate(1020 260) rotate(0 -35 -20)"><path d="M-53.85 -20.92 C-58.25 -26.13, -62.66 -31.34, -70 -40 M-53.85 -20.92 C-57.31 -25.01, -60.77 -29.1, -70 -40" stroke="#06b6d4" stroke-width="2" fill="none"></path></g></g><mask></mask><g transform="translate(977 205) rotate(0 8 10)"><text x="8" y="14.3203125" font-family="Helvetica, sans-serif, Segoe UI Emoji" font-size="16px" fill="#2dd4bf" text-anchor="middle" style="white-space: pre;" direction="ltr" dominant-baseline="alphabetic">No</text></g><g stroke-linecap="round"><g transform="translate(1020 260) rotate(0 -35 20)"><path d="M0 0 C-25.46 14.55, -50.93 29.1, -70 40 M0 0 C-26.14 14.94, -52.27 29.87, -70 40" stroke="#06b6d4" stroke-width="2" fill="none"></path></g><g transform="translate(1020 260) rotate(0 -35 20)"><path d="M-53.85 20.92 C-59.72 27.86, -65.6 34.8, -70 40 M-53.85 20.92 C-59.88 28.04, -65.91 35.17, -70 40" stroke="#06b6d4" stroke-width="2" fill="none"></path></g><g transform="translate(1020 260) rotate(0 -35 20)"><path d="M-45.36 35.77 C-54.32 37.31, -63.29 38.85, -70 40 M-45.36 35.77 C-54.56 37.35, -63.76 38.93, -70 40" stroke="#06b6d4" stroke-width="2" fill="none"></path></g></g><mask></mask><g transform="translate(977 245) rotate(0 8 10)"><text x="8" y="14.3203125" font-family="Helvetica, sans-serif, Segoe UI Emoji" font-size="16px" fill="#2dd4bf" text-anchor="middle" style="white-space: pre;" direction="ltr" dominant-baseline="alphabetic">Sí</text></g><g stroke-linecap="round"><g transform="translate(730 220) rotate(0 -30 0)"><path d="M0 0 C-20.71 0, -41.41 0, -60 0 M0 0 C-15.01 0, -30.02 0, -60 0" stroke="#06b6d4" stroke-width="2" fill="none"></path></g><g transform="translate(730 220) rotate(0 -30 0)"><path d="M-36.51 -8.55 C-44.61 -5.6, -52.72 -2.65, -60 0 M-36.51 -8.55 C-42.39 -6.41, -48.26 -4.27, -60 0" stroke="#06b6d4" stroke-width="2" fill="none"></path></g><g transform="translate(730 220) rotate(0 -30 0)"><path d="M-36.51 8.55 C-44.61 5.6, -52.72 2.65, -60 0 M-36.51 8.55 C-42.39 6.41, -48.26 4.27, -60 0" stroke="#06b6d4" stroke-width="2" fill="none"></path></g></g><mask></mask><g stroke-linecap="round"><g transform="translate(430 220) rotate(0 -15 20)"><path d="M0 0 C-11.32 15.1, -22.65 30.19, -30 40 M0 0 C-9.5 12.67, -19.01 25.34, -30 40" stroke="#06b6d4" stroke-width="2" fill="none"></path></g><g transform="translate(430 220) rotate(0 -15 20)"><path d="M-22.75 16.08 C-25.48 25.11, -28.22 34.13, -30 40 M-22.75 16.08 C-25.04 23.66, -27.34 31.23, -30 40" stroke="#06b6d4" stroke-width="2" fill="none"></path></g><g transform="translate(430 220) rotate(0 -15 20)"><path d="M-9.06 26.34 C-16.97 31.49, -24.87 36.65, -30 40 M-9.06 26.34 C-15.7 30.67, -22.33 34.99, -30 40" stroke="#06b6d4" stroke-width="2" fill="none"></path></g></g><mask></mask><g stroke-linecap="round"><g transform="translate(730 300) rotate(0 -165 -20)"><path d="M0 0 C-128.47 -15.57, -256.95 -31.15, -330 -40 M0 0 C-122.6 -14.86, -245.2 -29.72, -330 -40" stroke="#06b6d4" stroke-width="2" fill="none"></path></g><g transform="translate(730 300) rotate(0 -165 -20)"><path d="M-305.65 -45.66 C-315.13 -43.46, -324.61 -41.25, -330 -40 M-305.65 -45.66 C-314.7 -43.56, -323.74 -41.45, -330 -40" stroke="#06b6d4" stroke-width="2" fill="none"></path></g><g transform="translate(730 300) rotate(0 -165 -20)"><path d="M-307.71 -28.68 C-316.39 -33.09, -325.07 -37.5, -330 -40 M-307.71 -28.68 C-315.99 -32.89, -324.27 -37.09, -330 -40" stroke="#06b6d4" stroke-width="2" fill="none"></path></g></g><mask></mask><g stroke-linecap="round"><g transform="translate(200 260) rotate(0 -10 0)"><path d="M0 0 C-4.68 0, -9.36 0, -20 0 M0 0 C-6.02 0, -12.03 0, -20 0" stroke="#06b6d4" stroke-width="2" fill="none"></path></g><g transform="translate(200 260) rotate(0 -10 0)"><path d="M-10.6 -3.42 C-12.8 -2.62, -15 -1.82, -20 0 M-10.6 -3.42 C-13.43 -2.39, -16.26 -1.36, -20 0" stroke="#06b6d4" stroke-width="2" fill="none"></path></g><g transform="translate(200 260) rotate(0 -10 0)"><path d="M-10.6 3.42 C-12.8 2.62, -15 1.82, -20 0 M-10.6 3.42 C-13.43 2.39, -16.26 1.36, -20 0" stroke="#06b6d4" stroke-width="2" fill="none"></path></g></g><mask></mask><g stroke-linecap="round" transform="translate(10 385) rotate(0 90 55)"><path d="M91 0 L180 56 L91 110 L0 56" stroke="none" stroke-width="0" fill="#111827" fill-rule="evenodd"></path><path d="M91 0 C121.16 18.98, 151.31 37.95, 180 56 M91 0 C113.32 14.04, 135.64 28.09, 180 56 M180 56 C150.66 73.8, 121.31 91.61, 91 110 M180 56 C159.86 68.22, 139.71 80.44, 91 110 M91 110 C63.83 93.88, 36.67 77.76, 0 56 M91 110 C70.8 98.01, 50.59 86.02, 0 56 M0 56 C33.36 35.47, 66.72 14.94, 91 0 M0 56 C28.09 38.72, 56.17 21.43, 91 0" stroke="#2dd4bf" stroke-width="2" fill="none"></path></g><g transform="translate(32 420) rotate(0 68 20)"><text x="68" y="14.3203125" font-family="Helvetica, sans-serif, Segoe UI Emoji" font-size="16px" fill="#2dd4bf" text-anchor="middle" style="white-space: pre;" direction="ltr" dominant-baseline="alphabetic">¿Página Traducida</text><text x="68" y="34.3203125" font-family="Helvetica, sans-serif, Segoe UI Emoji" font-size="16px" fill="#2dd4bf" text-anchor="middle" style="white-space: pre;" direction="ltr" dominant-baseline="alphabetic">en Disco?</text></g><g stroke-linecap="round"><g transform="translate(100 290) rotate(0 0 47.5)"><path d="M0 0 C0 20.58, 0 41.15, 0 95 M0 0 C0 35.19, 0 70.39, 0 95" stroke="#06b6d4" stroke-width="2" fill="none"></path></g><g transform="translate(100 290) rotate(0 0 47.5)"><path d="M-8.55 71.51 C-6.7 76.6, -4.85 81.68, 0 95 M-8.55 71.51 C-5.38 80.21, -2.22 88.91, 0 95" stroke="#06b6d4" stroke-width="2" fill="none"></path></g><g transform="translate(100 290) rotate(0 0 47.5)"><path d="M8.55 71.51 C6.7 76.6, 4.85 81.68, 0 95 M8.55 71.51 C5.38 80.21, 2.22 88.91, 0 95" stroke="#06b6d4" stroke-width="2" fill="none"></path></g></g><mask></mask><g stroke-linecap="round" transform="translate(260 370) rotate(0 120 30)"><path d="M0 0 L240 0 L240 60 L0 60" stroke="none" stroke-width="0" fill="#111827"></path><path d="M0 0 C85.18 0, 170.36 0, 240 0 M0 0 C64.79 0, 129.58 0, 240 0 M240 0 C240 20.78, 240 41.55, 240 60 M240 0 C240 23.5, 240 46.99, 240 60 M240 60 C158.74 60, 77.48 60, 0 60 M240 60 C147.96 60, 55.91 60, 0 60 M0 60 C0 42.6, 0 25.19, 0 0 M0 60 C0 40.89, 0 21.77, 0 0" stroke="#2dd4bf" stroke-width="2" fill="none"></path></g><g transform="translate(280 380) rotate(0 100 20)"><text x="100" y="14.3203125" font-family="Helvetica, sans-serif, Segoe UI Emoji" font-size="16px" fill="#2dd4bf" text-anchor="middle" style="white-space: pre;" direction="ltr" dominant-baseline="alphabetic">Omitir Traducción, Cargar</text><text x="100" y="34.3203125" font-family="Helvetica, sans-serif, Segoe UI Emoji" font-size="16px" fill="#2dd4bf" text-anchor="middle" style="white-space: pre;" direction="ltr" dominant-baseline="alphabetic">desde Caché</text></g><g stroke-linecap="round" transform="translate(270 450) rotate(0 110 30)"><path d="M0 0 L220 0 L220 60 L0 60" stroke="none" stroke-width="0" fill="#111827"></path><path d="M0 0 C70.97 0, 141.94 0, 220 0 M0 0 C50.7 0, 101.39 0, 220 0 M220 0 C220 15.44, 220 30.87, 220 60 M220 0 C220 19.33, 220 38.67, 220 60 M220 60 C152.23 60, 84.46 60, 0 60 M220 60 C132.7 60, 45.41 60, 0 60 M0 60 C0 47.79, 0 35.57, 0 0 M0 60 C0 46.85, 0 33.7, 0 0" stroke="#2dd4bf" stroke-width="2" fill="none"></path></g><g transform="translate(260 470) rotate(0 120 10)"><text x="120" y="14.3203125" font-family="Helvetica, sans-serif, Segoe UI Emoji" font-size="16px" fill="#2dd4bf" text-anchor="middle" style="white-space: pre;" direction="ltr" dominant-baseline="alphabetic">Ejecutar Traducción y Revisión</text></g><g stroke-linecap="round" transform="translate(550 450) rotate(0 120 30)"><path d="M0 0 L240 0 L240 60 L0 60" stroke="none" stroke-width="0" fill="#111827"></path><path d="M0 0 C80.54 0, 161.08 0, 240 0 M0 0 C88.45 0, 176.9 0, 240 0 M240 0 C240 18.45, 240 36.91, 240 60 M240 0 C240 15.36, 240 30.73, 240 60 M240 60 C145.3 60, 50.59 60, 0 60 M240 60 C164.47 60, 88.94 60, 0 60 M0 60 C0 43.58, 0 27.16, 0 0 M0 60 C0 40.32, 0 20.64, 0 0" stroke="#2dd4bf" stroke-width="2" fill="none"></path></g><g transform="translate(574 460) rotate(0 96 20)"><text x="96" y="14.3203125" font-family="Helvetica, sans-serif, Segoe UI Emoji" font-size="16px" fill="#2dd4bf" text-anchor="middle" style="white-space: pre;" direction="ltr" dominant-baseline="alphabetic">Guardar Página Traducida</text><text x="96" y="34.3203125" font-family="Helvetica, sans-serif, Segoe UI Emoji" font-size="16px" fill="#2dd4bf" text-anchor="middle" style="white-space: pre;" direction="ltr" dominant-baseline="alphabetic">en Disco de Inmediato</text></g><g stroke-linecap="round" transform="translate(860 410) rotate(0 110 30)"><path d="M0 0 L220 0 L220 60 L0 60" stroke="none" stroke-width="0" fill="#111827"></path><path d="M0 0 C81.46 0, 162.93 0, 220 0 M0 0 C47.4 0, 94.8 0, 220 0 M220 0 C220 13.37, 220 26.74, 220 60 M220 0 C220 23.22, 220 46.43, 220 60 M220 60 C133.25 60, 46.49 60, 0 60 M220 60 C157.23 60, 94.47 60, 0 60 M0 60 C0 44.13, 0 28.27, 0 0 M0 60 C0 43.24, 0 26.48, 0 0" stroke="#2dd4bf" stroke-width="2" fill="none"></path></g><g transform="translate(858 430) rotate(0 112 10)"><text x="112" y="14.3203125" font-family="Helvetica, sans-serif, Segoe UI Emoji" font-size="16px" fill="#2dd4bf" text-anchor="middle" style="white-space: pre;" direction="ltr" dominant-baseline="alphabetic">Siguiente Página / Finalizar</text></g><g stroke-linecap="round"><g transform="translate(190 440) rotate(0 35 -20)"><path d="M0 0 C14.22 -8.13, 28.44 -16.25, 70 -40 M0 0 C22.31 -12.75, 44.62 -25.5, 70 -40" stroke="#06b6d4" stroke-width="2" fill="none"></path></g><g transform="translate(190 440) rotate(0 35 -20)"><path d="M53.85 -20.92 C57.13 -24.8, 60.41 -28.67, 70 -40 M53.85 -20.92 C58.99 -27, 64.14 -33.08, 70 -40" stroke="#06b6d4" stroke-width="2" fill="none"></path></g><g transform="translate(190 440) rotate(0 35 -20)"><path d="M45.36 -35.77 C50.37 -36.63, 55.37 -37.49, 70 -40 M45.36 -35.77 C53.21 -37.12, 61.07 -38.47, 70 -40" stroke="#06b6d4" stroke-width="2" fill="none"></path></g></g><mask></mask><g transform="translate(217 385) rotate(0 8 10)"><text x="8" y="14.3203125" font-family="Helvetica, sans-serif, Segoe UI Emoji" font-size="16px" fill="#2dd4bf" text-anchor="middle" style="white-space: pre;" direction="ltr" dominant-baseline="alphabetic">Sí</text></g><g stroke-linecap="round"><g transform="translate(190 440) rotate(0 40 20)"><path d="M0 0 C25.47 12.73, 50.94 25.47, 80 40 M0 0 C22.56 11.28, 45.12 22.56, 80 40" stroke="#06b6d4" stroke-width="2" fill="none"></path></g><g transform="translate(190 440) rotate(0 40 20)"><path d="M55.16 37.14 C63.07 38.05, 70.98 38.96, 80 40 M55.16 37.14 C62.17 37.95, 69.17 38.75, 80 40" stroke="#06b6d4" stroke-width="2" fill="none"></path></g><g transform="translate(190 440) rotate(0 40 20)"><path d="M62.81 21.85 C68.28 27.63, 73.76 33.4, 80 40 M62.81 21.85 C67.66 26.97, 72.51 32.09, 80 40" stroke="#06b6d4" stroke-width="2" fill="none"></path></g></g><mask></mask><g transform="translate(222 425) rotate(0 8 10)"><text x="8" y="14.3203125" font-family="Helvetica, sans-serif, Segoe UI Emoji" font-size="16px" fill="#2dd4bf" text-anchor="middle" style="white-space: pre;" direction="ltr" dominant-baseline="alphabetic">No</text></g><g stroke-linecap="round"><g transform="translate(490 480) rotate(0 30 0)"><path d="M0 0 C15.78 0, 31.56 0, 60 0 M0 0 C12 0, 24 0, 60 0" stroke="#06b6d4" stroke-width="2" fill="none"></path></g><g transform="translate(490 480) rotate(0 30 0)"><path d="M36.51 8.55 C42.69 6.3, 48.86 4.05, 60 0 M36.51 8.55 C41.21 6.84, 45.91 5.13, 60 0" stroke="#06b6d4" stroke-width="2" fill="none"></path></g><g transform="translate(490 480) rotate(0 30 0)"><path d="M36.51 -8.55 C42.69 -6.3, 48.86 -4.05, 60 0 M36.51 -8.55 C41.21 -6.84, 45.91 -5.13, 60 0" stroke="#06b6d4" stroke-width="2" fill="none"></path></g></g><mask></mask><g stroke-linecap="round"><g transform="translate(790 480) rotate(0 35 -20)"><path d="M0 0 C18.04 -10.31, 36.08 -20.62, 70 -40 M0 0 C18.64 -10.65, 37.29 -21.31, 70 -40" stroke="#06b6d4" stroke-width="2" fill="none"></path></g><g transform="translate(790 480) rotate(0 35 -20)"><path d="M53.85 -20.92 C58.01 -25.84, 62.17 -30.76, 70 -40 M53.85 -20.92 C58.15 -26, 62.45 -31.08, 70 -40" stroke="#06b6d4" stroke-width="2" fill="none"></path></g><g transform="translate(790 480) rotate(0 35 -20)"><path d="M45.36 -35.77 C51.71 -36.86, 58.06 -37.95, 70 -40 M45.36 -35.77 C51.92 -36.9, 58.49 -38.02, 70 -40" stroke="#06b6d4" stroke-width="2" fill="none"></path></g></g><mask></mask><g stroke-linecap="round"><g transform="translate(500 400) rotate(0 180 20)"><path d="M0 0 C131.8 14.64, 263.61 29.29, 360 40 M0 0 C84.11 9.35, 168.23 18.69, 360 40" stroke="#06b6d4" stroke-width="2" fill="none"></path></g><g transform="translate(500 400) rotate(0 180 20)"><path d="M335.71 45.9 C344.6 43.74, 353.5 41.58, 360 40 M335.71 45.9 C341.38 44.52, 347.06 43.15, 360 40" stroke="#06b6d4" stroke-width="2" fill="none"></path></g><g transform="translate(500 400) rotate(0 180 20)"><path d="M337.6 28.91 C345.8 32.97, 354 37.03, 360 40 M337.6 28.91 C342.83 31.5, 348.07 34.09, 360 40" stroke="#06b6d4" stroke-width="2" fill="none"></path></g></g><mask></mask></svg>
